<svg id="Layer_1" data-name="Layer 1" xmlns="http://www.w3.org/2000/svg" xmlns:xlink="http://www.w3.org/1999/xlink" width="1920" height="1080" viewBox="0 0 1920 1080"><defs><style>.cls-1{fill:#093a82;}.cls-2{fill:#fff;}.cls-3{fill:#0e0048;}.cls-4{fill:#959b9d;}.cls-5,.cls-6{fill:#b1ded6;}.cls-6{font-size:54px;font-family:MyriadPro-Regular, Myriad Pro;}.cls-7{letter-spacing:-0.04em;}.cls-8{letter-spacing:-0.01em;}.cls-9{letter-spacing:-0.01em;}.cls-10{letter-spacing:-0.01em;}</style></defs><image width="4733" height="2667" transform="translate(-4) scale(0.41 0.41)" xlink:href="Splash1.png"/><path class="cls-1" d="M889.36,545.43C813,697.09,754.47,705.07,704.09,737s-54,114.76-136.41,156-111.1-76.71-194.74-42.27S305.43,885,212.78,940.65C133.28,988.39,78.14,994-1,956.25V0H879.81C900,38,918.62,127.7,918.62,127.7S965.75,393.78,889.36,545.43Z"/><polygon class="cls-2" points="533.11 326.17 533.11 614.45 689.53 614.45 689.53 562.88 587.11 562.88 587.11 326.17 533.11 326.17"/><path class="cls-2" d="M410.45,63c-16.6,0-29.77,3-40.25,8C340,85.5,332.49,117.2,332.49,145v58.24h57.24V138.5c0-14.56,8.45-24,21.53-24a20.51,20.51,0,0,1,14.91,5.84c4.19,4.19,6.63,10.4,6.63,18.13v64.71H490V145C490,92.85,461,63,410.45,63Z"/><path class="cls-2" d="M332.49,326.17V539.73c0,35.49,12.33,59.64,36,71.62,11.39,5.78,25.38,8.76,42,8.76,51.33,0,79.58-28.55,79.58-80.38V326.17H432.8v220c0,7.73-2.44,13.94-6.63,18.12a20.5,20.5,0,0,1-14.91,5.84c-13.08,0-21.53-9.4-21.53-24v-220Z"/><polygon class="cls-2" points="245.94 326.17 245.94 510.01 243.18 510.01 189.87 331.52 138.35 331.52 138.35 619.81 181.83 619.81 181.83 435.97 184.59 435.97 237.9 614.45 289.42 614.45 289.42 326.17 245.94 326.17"/><rect class="cls-3" x="592.47" y="326.17" width="10.71" height="231.35"/><polygon class="cls-3" points="689.53 557.52 689.53 557.52 689.54 557.52 689.53 619.81 700.25 619.81 700.25 557.52 689.53 557.52"/><path class="cls-3" d="M402.86,122a13.91,13.91,0,0,0-5.43,5.61,23.25,23.25,0,0,0-2.34,10.87v64.71H405.8V138.5c0-9.2,3.79-15.65,10.82-17.78a18.29,18.29,0,0,0-5.35-.83A16.54,16.54,0,0,0,402.86,122Z"/><path class="cls-3" d="M421.17,57.6c-1.85,0-3.56.14-5.34.21C466.64,60,495.39,92.61,495.39,145v58.24h10.72V145C506.11,90.77,475.37,57.6,421.17,57.6Z"/><path class="cls-3" d="M411.26,564.8a18.49,18.49,0,0,0,4.8-.66l.56-.17c-7-2.13-10.82-8.58-10.82-17.77v-220H395.09v220C395.09,557.52,400.74,564.8,411.26,564.8Z"/><path class="cls-3" d="M495.39,326.17h0V539.73c0,25.88-7.08,47.32-21.23,62.28-13.26,14-32.8,22.26-58.47,23.26,1.82.07,3.59.2,5.48.2,56.62,0,84.94-34,84.94-85.75V326.17Z"/><polygon class="cls-3" points="240.58 479.56 240.58 446.72 204.57 326.17 193.86 326.17 239.67 479.56 240.58 479.56"/><polygon class="cls-3" points="187.19 466.42 187.19 619.81 197.9 619.81 197.9 499.25 188.09 466.42 187.19 466.42"/><rect class="cls-3" x="294.78" y="326.17" width="10.71" height="293.64"/><polygon class="cls-3" points="240.58 479.56 240.58 446.73 240.58 446.72 240.58 479.56 240.58 479.56"/><rect class="cls-3" x="187.19" y="466.42" height="153.39"/><polygon class="cls-4" points="592.47 557.52 592.47 326.17 587.11 326.17 587.11 562.88 689.53 562.88 689.53 557.52 592.47 557.52"/><polygon class="cls-4" points="533.11 614.45 533.11 326.17 527.75 326.17 527.75 326.17 527.75 619.81 527.75 619.81 689.53 619.81 689.53 614.45 533.11 614.45"/><path class="cls-4" d="M415.82,57.81c-1.79-.07-3.53-.21-5.37-.21-27.89,0-48.1,8.23-61.67,22.43C334,95.47,327.14,118,327.14,145v58.24h5.35V145c0-27.77,7.51-59.47,37.71-74,10.48-5,23.65-8,40.25-8C461,63,490,92.85,490,145v58.24h5.36V145C495.39,92.61,466.63,60,415.82,57.81Z"/><path class="cls-4" d="M411.26,114.53c-13.08,0-21.53,9.41-21.53,24v64.71h5.35V138.5a23.25,23.25,0,0,1,2.35-10.87,13.91,13.91,0,0,1,5.43-5.61,16.5,16.5,0,0,1,8.4-2.13,18.31,18.31,0,0,1,5.36.83c7,2.13,10.82,8.58,10.82,17.78v64.71h5.36V138.5c0-7.73-2.44-13.94-6.63-18.13A20.51,20.51,0,0,0,411.26,114.53Z"/><path class="cls-4" d="M495.39,326.17H490V539.73c0,51.83-28.25,80.38-79.58,80.38-16.58,0-30.57-3-42-8.76-23.67-12-36-36.13-36-71.62V326.17h-5.35V539.73c0,53.39,26.69,85.74,83.31,85.74,1.79,0,3.46-.13,5.19-.2h.05c25.67-1,45.21-9.24,58.47-23.26,14.15-15,21.23-36.4,21.23-62.28V326.17Z"/><path class="cls-4" d="M411.26,570.16a20.5,20.5,0,0,0,14.91-5.84c4.19-4.18,6.63-10.39,6.63-18.12v-220h-5.36v220c0,9.19-3.79,15.64-10.82,17.77l-.56.17a18.49,18.49,0,0,1-4.8.66h0c-10.51,0-16.18-7.28-16.18-18.6v-220h-5.35v220C389.73,560.76,398.18,570.16,411.26,570.16Z"/><polygon class="cls-4" points="243.18 510.01 245.94 510.01 245.94 326.17 240.58 326.17 240.58 326.17 240.58 479.56 240.58 479.56 239.67 479.56 193.86 326.17 193.86 326.17 132.99 326.17 132.99 326.17 132.99 619.81 132.99 619.81 138.35 619.81 138.35 331.52 189.87 331.52 243.18 510.01"/><polygon class="cls-4" points="289.42 326.17 289.42 614.45 237.9 614.45 184.59 435.97 181.83 435.97 181.83 619.81 187.19 619.81 187.19 466.42 187.19 466.42 188.09 466.42 233.91 619.81 233.91 619.81 294.78 619.81 294.78 326.17 289.42 326.17"/><polygon class="cls-5" points="231.39 238.05 231.39 303.12 217.18 303.12 217.18 238.05 192.54 238.05 192.54 226.25 255.93 226.25 255.93 238.05 231.39 238.05"/><path class="cls-5" d="M295.3,291.85c9.79,0,16.42-6.73,16.42-19.16V226.25h14.22v46.54c0,20-13.38,31.6-30.64,31.6s-30.65-11.59-30.65-31.6V226.25h14.22v46.44c0,12.43,6.74,19.16,16.43,19.16"/><path class="cls-5" d="M340.77,226.25h22.11c17.17,0,26.12,8,26.12,20.33a17.15,17.15,0,0,1-10.74,16c8.74,2.32,15.48,8.95,15.48,18.64,0,13.59-10.54,21.91-27.17,21.91h-25.8ZM362,258.79c8,0,13.06-3.58,13.06-10.32S370,238.05,362,238.05h-7.37v20.74Zm3.69,32.54c8.1,0,13.59-4.22,13.59-11.06s-5.49-10.95-13.59-10.95H354.67v22Z"/><path class="cls-5" d="M480.7,264.69A39.28,39.28,0,1,1,441.42,225a39.44,39.44,0,0,1,39.28,39.7m-64.34,0c0,15.16,11.16,26.54,25.06,26.54s25.06-11.38,25.06-26.54-11.15-26.54-25.06-26.54-25.06,11.38-25.06,26.54"/><path class="cls-5" d="M507.28,303.13H493.06V226.25h21.69c17,0,29.07,8.74,29.07,23.8,0,10.43-5.79,17.58-15.06,21.06l23.9,32H536.13l-22-29.7h-6.84ZM507,262.06h7.48c8.74,0,14.63-4.32,14.63-12s-5.89-12.11-14.63-12.11H507Z"/><path class="cls-5" d="M629.88,262.27c.11,1.36.11,2.74.11,4.1,0,24-16.85,38-37.17,38-21.7,0-39.18-17.8-39.18-39.7S571.12,225,592.82,225a36.54,36.54,0,0,1,32.43,19l-11.9,7.16c-4.21-7.8-11.69-12.75-20.53-12.75-13.8,0-25,11.59-25,26.33S579,291.43,593,291.43c11.47,0,19.79-6.84,22.11-17.37H593.87V262.27Z"/><path class="cls-2" d="M1920,1080V973c-30-1-100.38,19.76-171,33-48,9-123,22-272,39-116.36,13.28-197.57,18.65-311,18-99.66-.57-158.5-6.9-240-20-94.72-15.23-118.61-25.34-217-35-64.69-6.35-114.11-5.29-174-4-79.05,1.7-137.41,6-214,16-145,19-141.71,13.24-275,44-13,3-28.15,6.07-46,10v6Z"/><text class="cls-6" transform="translate(126.57 687.25)"><tspan class="cls-7">F</tspan><tspan x="23.87" y="0">å me</tspan><tspan class="cls-8" x="133.43" y="0">r</tspan><tspan x="150.55" y="0">e ud af </tspan><tspan class="cls-9" x="313.95" y="0">h</tspan><tspan class="cls-10" x="343.22" y="0">v</tspan><tspan x="368.65" y="0">e</tspan><tspan class="cls-10" x="395.71" y="0">r</tspan><tspan x="412.83" y="0">dagen</tspan></text></svg>
